<svg xmlns="http://www.w3.org/2000/svg" width="24" height="21" viewBox="0 0 24 21" fill="none">
<path d="M17.5617 9.061L16.1217 10.5L17.5617 11.939C17.8431 12.2204 18.0011 12.602 18.0011 13C18.0011 13.398 17.8431 13.7796 17.5617 14.061C17.2803 14.3424 16.8986 14.5005 16.5007 14.5005C16.1027 14.5005 15.7211 14.3424 15.4397 14.061L14.0007 12.621L12.5617 14.061C12.2803 14.3424 11.8986 14.5005 11.5007 14.5005C11.1027 14.5005 10.7211 14.3424 10.4397 14.061C10.1583 13.7796 10.0002 13.398 10.0002 13C10.0002 12.803 10.039 12.6078 10.1144 12.4258C10.1898 12.2437 10.3003 12.0783 10.4397 11.939L11.8797 10.5L10.4397 9.061C10.1583 8.7796 10.0002 8.39795 10.0002 8C10.0002 7.60205 10.1583 7.22039 10.4397 6.939C10.7211 6.65761 11.1027 6.49952 11.5007 6.49952C11.8986 6.49952 12.2803 6.65761 12.5617 6.939L14.0007 8.379L15.4397 6.939C15.7211 6.65761 16.1027 6.49952 16.5007 6.49952C16.8986 6.49952 17.2803 6.65761 17.5617 6.939C17.8431 7.22039 18.0011 7.60205 18.0011 8C18.0011 8.39795 17.8431 8.7796 17.5617 9.061ZM24.0007 5.5V15.5C23.9991 16.8256 23.4718 18.0964 22.5344 19.0338C21.5971 19.9711 20.3263 20.4984 19.0007 20.5H9.97766C9.13278 20.4976 8.29965 20.3018 7.54216 19.9275C6.78468 19.5533 6.12293 19.0106 5.60766 18.341L0.307664 11.411C0.107683 11.1494 -0.000665665 10.8293 -0.000665665 10.5C-0.000665665 10.1707 0.107683 9.85059 0.307664 9.589L5.60766 2.659C6.12293 1.98942 6.78468 1.4467 7.54216 1.07247C8.29965 0.698228 9.13278 0.502402 9.97766 0.5H19.0007C20.3263 0.501588 21.5971 1.02888 22.5344 1.96622C23.4718 2.90356 23.9991 4.17441 24.0007 5.5ZM21.0007 5.5C21.0007 4.96957 20.79 4.46086 20.4149 4.08579C20.0398 3.71071 19.5311 3.5 19.0007 3.5H9.97766C9.59358 3.50114 9.21485 3.59014 8.87045 3.76017C8.52605 3.9302 8.22511 4.17677 7.99066 4.481L3.38966 10.5L7.98966 16.519C8.22421 16.8234 8.52531 17.07 8.8699 17.2401C9.21448 17.4101 9.59341 17.499 9.97766 17.5H19.0007C19.5311 17.5 20.0398 17.2893 20.4149 16.9142C20.79 16.5391 21.0007 16.0304 21.0007 15.5V5.5Z" fill="white"/>
</svg>